<svg width="165" height="45" viewBox="0 0 165 45" fill="none" xmlns="http://www.w3.org/2000/svg">
<g clip-path="url(#clip0_1_3)">
<path d="M50.8804 0.385292L34.1539 43.9034H38.1769L44.4419 27.6662C44.4419 27.6662 61.4698 30.2401 66.9608 43.8965H74.0203L57.2984 0.385292H50.8804ZM45.7775 24.2304L52.7686 5.70194L62.4104 32.5132C56.3555 26.4715 45.7775 24.2304 45.7775 24.2304Z" fill="#1E3282"/>
<path d="M148.271 0.385292H141.856L125.127 43.9034H129.157C131.707 37.8002 137.285 32.1643 143.381 29.5835C146.146 28.414 148.557 27.6593 151.532 27.4473L158.153 43.8965H165.002L148.271 0.385292ZM139.965 27.4997C138.024 28.5166 135.495 30.3906 133.826 31.9295L143.712 5.86381L150.308 24.2372C146.582 24.6431 143.34 25.7351 139.965 27.4997Z" fill="#1E3282"/>
<path d="M100.651 27.8372H112.067V40.536C109.542 41.8538 106.48 42.4078 103.88 42.4078C92.8862 42.4078 84.8654 32.1758 84.8654 22.3951C84.8654 11.9967 91.2172 2.53293 102.138 2.53293C102.138 2.53293 112.033 2.17044 115.35 11.9533H116.684V11.6684V4.70793C116.684 4.70793 116.085 4.27475 115.031 3.64778C114.28 3.17575 113.501 2.75088 112.697 2.37562C109.234 0.759198 105.263 0.00228119 100.622 0.00228119H100.599C85.7513 0.00228119 77.2191 9.50704 77.2191 23.0289C77.2191 36.7583 87.2079 45.0068 101.176 45.0068C107.569 45.0068 114.805 43.4109 118.965 40.5018V24.2578H100.651V27.8372Z" fill="#1E3282"/>
<path d="M17.8795 18.6768L13.0848 17.0194C7.5824 14.8626 5.98419 12.0971 5.98419 8.72292C5.98419 4.96342 9.42492 2.5308 14.7127 2.5308C15.3636 2.52978 16.0135 2.5824 16.6557 2.68812C16.6557 2.68812 23.423 3.29228 25.6034 11.0073L25.8706 11.9535H27.1903V3.90328C27.1903 3.90328 21.5759 0.00243378 13.9935 0.00243378C6.45908 0.262339 0 4.31822 0 11.3243C0 16.7959 2.65761 20.1952 10.1898 23.0154L15.2538 24.8393C20.649 26.8319 23.5783 30.0146 23.5783 34.6587C23.5783 41.9793 13.9365 42.4102 13.9365 42.4102C13.3074 42.4476 12.6761 42.4194 12.0528 42.3259C9.08473 41.9178 3.46357 40.2398 1.76261 33.7673L1.45894 32.6957H0.141559V41.0241C0.141559 41.0241 6.12574 44.9979 13.8725 44.9979C22.7929 44.9979 29.7383 40.5179 29.7383 31.9479C29.7291 23.6538 23.2746 20.7241 17.8795 18.6768Z" fill="#1E3282"/>
</g>
<defs>
<clipPath id="clip0_1_3">
<rect width="165" height="45" fill="white"/>
</clipPath>
</defs>
</svg>
